<svg xmlns="http://www.w3.org/2000/svg" viewBox="0 0 100 100">
  <g fill="#fff">
	<path d="M84.1,56.9c0,1.1-0.7,1.6-2.1,1.6c-1,0-1.9-0.2-2.7-0.7v2c0.8,0.4,1.8,0.5,2.8,0.5c1.3,0,2.3-0.3,3.1-0.8
		c0.8-0.6,1.2-1.4,1.2-2.6c0-0.8-0.2-1.4-0.7-1.9c-0.5-0.5-1-0.7-1.7-0.8c0.6-0.2,1-0.5,1.4-0.9c0.4-0.4,0.5-0.9,0.5-1.5
		c0-1-0.3-1.7-0.9-2.2c-0.6-0.5-1.5-0.7-2.6-0.7c-1,0-1.9,0.1-2.8,0.4v1.9c0.8-0.3,1.7-0.5,2.5-0.5c0.5,0,0.8,0.1,1.1,0.3
		c0.2,0.2,0.4,0.5,0.4,0.9c0,0.4-0.2,0.8-0.5,1.1c-0.3,0.3-0.9,0.4-1.6,0.4h-0.9v1.9H82C83.4,55.4,84.1,55.9,84.1,56.9 M78.3,54.5
		h-4.8v1.8h4.8V54.5z M69.3,58.3c-0.3,0.3-0.7,0.4-1.1,0.4c-0.3,0-0.5-0.1-0.7-0.2c-0.2-0.2-0.3-0.4-0.3-0.6s0.1-0.5,0.2-0.7
		c0.1-0.2,0.4-0.3,0.8-0.4l0.9-0.3c0.2-0.1,0.4-0.1,0.5-0.3v1.1C69.7,57.7,69.5,58,69.3,58.3 M71.1,52.5c-0.6-0.5-1.3-0.7-2.4-0.7
		c-1.3,0-2.3,0.2-3.1,0.5v1.8c0.9-0.4,1.9-0.6,2.9-0.6c0.8,0,1.1,0.2,1.1,0.7c0,0.2-0.1,0.3-0.2,0.5c-0.1,0.1-0.3,0.2-0.7,0.3
		l-1.3,0.3c-0.9,0.2-1.6,0.6-2,1c-0.4,0.4-0.6,1-0.6,1.6c0,0.7,0.2,1.2,0.7,1.7c0.4,0.4,1,0.7,1.8,0.7c1.1,0,1.9-0.4,2.5-1.1
		c0,0.4,0.1,0.7,0.2,0.9h1.9v-5.3C71.9,53.8,71.6,53,71.1,52.5 M59.4,58.1c-1,0-1.5-0.7-1.5-2.2c0-1.5,0.5-2.2,1.5-2.2
		c1,0,1.5,0.7,1.5,2.2C60.9,57.4,60.4,58.1,59.4,58.1 M61.3,52.1c-0.1,0.3-0.2,0.6-0.2,1c-0.5-0.8-1.2-1.2-2.2-1.2
		c-1.1,0-2,0.4-2.5,1.1c-0.5,0.7-0.8,1.7-0.8,3c0,1.3,0.3,2.2,0.8,3c0.5,0.7,1.4,1.1,2.5,1.1c0.8,0,1.5-0.3,2-0.9v0.6
		c0,0.6-0.2,1.1-0.6,1.5c-0.4,0.4-0.9,0.6-1.6,0.6c-0.9,0-1.7-0.2-2.6-0.7v1.9c0.7,0.5,1.6,0.7,2.8,0.7c1.3,0,2.3-0.4,3-1.1
		c0.8-0.7,1.1-1.7,1.1-3v-7.3H61.3z M51.7,53.8c0.2,0.1,0.3,0.4,0.3,0.6c0,0.5-0.4,0.8-1.1,1l-1,0.3c-0.3,0.1-0.6,0.2-0.7,0.3v-0.2
		c0-0.7,0.2-1.2,0.5-1.6c0.3-0.4,0.7-0.6,1.3-0.6C51.3,53.6,51.5,53.7,51.7,53.8 M53.6,55.9c0.4-0.4,0.6-0.9,0.6-1.6
		c0-0.7-0.3-1.3-0.8-1.8c-0.5-0.5-1.3-0.7-2.4-0.7c-1.2,0-2.2,0.4-2.9,1.2c-0.7,0.8-1.1,1.8-1.1,3.1c0,1.3,0.3,2.4,1,3.1
		c0.6,0.8,1.6,1.1,2.8,1.1c1.4,0,2.5-0.2,3.4-0.7v-1.8c-1.2,0.5-2.3,0.8-3.4,0.8c-0.4,0-0.7-0.1-0.9-0.3c-0.2-0.2-0.3-0.4-0.3-0.6
		c0-0.3,0.2-0.5,0.6-0.6l1.4-0.3C52.5,56.6,53.2,56.3,53.6,55.9 M36.3,52.2c-0.4,0.2-0.7,0.6-0.9,0.9c0-0.5-0.1-0.8-0.2-1.1h-1.9
		v8.1h2.2v-4.1c0-0.8,0.1-1.4,0.4-1.8c0.3-0.4,0.6-0.5,1.1-0.5c0.4,0,0.7,0.2,0.9,0.7c0.1,0.3,0.1,0.8,0.1,1.6v4.2h2.2v-4.1
		c0-0.8,0.1-1.4,0.4-1.8c0.2-0.4,0.6-0.6,1.1-0.6c0.5,0,0.8,0.2,0.9,0.7C43,54.7,43,55.2,43,56v4.2h2.2v-4.7c0-1-0.1-1.7-0.3-2.2
		c-0.4-1-1.2-1.4-2.4-1.4c-0.6,0-1,0.1-1.5,0.4c-0.4,0.3-0.8,0.6-1,1c-0.4-0.9-1.2-1.4-2.4-1.4C37.2,51.9,36.8,52,36.3,52.2
		 M26.6,48.9c-1.6,0-2.8,0.5-3.7,1.6c-0.9,1-1.3,2.4-1.3,4.2c0,1.7,0.4,3.1,1.3,4.2c0.9,1.1,2.1,1.6,3.7,1.6c1.6,0,2.8-0.5,3.7-1.6
		c0.9-1.1,1.3-2.4,1.3-4.2c0-1.7-0.4-3.1-1.3-4.2C29.4,49.4,28.2,48.9,26.6,48.9 M28.6,57.4c-0.4,0.7-1.1,1.1-2,1.1
		c-0.9,0-1.6-0.4-1.9-1.1c-0.4-0.7-0.6-1.6-0.6-2.8c0-1.1,0.2-2.1,0.6-2.8c0.4-0.7,1-1.1,1.9-1.1c0.9,0,1.6,0.4,2,1.1
		c0.4,0.7,0.6,1.6,0.6,2.8C29.2,55.8,29,56.7,28.6,57.4"/>
	<path d="M40.9,37.6c-2.8-2.8-2.8-7.3,0-10c2.8-2.8,7.3-2.8,10,0c2.8,2.8,2.8,7.3,0,10C48.2,40.3,43.7,40.3,40.9,37.6"
		/>
	<path d="M55.2,44.5c-1.6-1.6-1.6-4.2,0-5.8c1.6-1.6,4.2-1.6,5.8,0c1.6,1.6,1.6,4.2,0,5.8
		C59.4,46.1,56.8,46.1,55.2,44.5"/>
	<path d="M35,43.5c-0.9-0.9-0.9-2.3,0-3.2c0.9-0.9,2.3-0.9,3.2,0c0.9,0.9,0.9,2.3,0,3.2C37.3,44.3,35.9,44.3,35,43.5"/>
	<path d="M80.4,39.1c-1.3-3.9-3.3-7.7-6.1-11c-6.8-8.3-16.7-12.5-26.7-12.5c-7.8,0-15.6,2.6-22,7.9
		C17.3,30.2,13,40.1,13,50.1c0,7.8,2.6,15.6,7.9,22c6.8,8.3,16.7,12.5,26.7,12.5c7.8,0,15.6-2.6,22-7.9c2.5-2.1,4.6-4.4,6.4-7
		c0.3-0.5,0.2-1.1-0.3-1.4c-0.5-0.3-1.1-0.2-1.4,0.3c-1.7,2.4-3.7,4.6-6,6.6c-6.1,5-13.4,7.4-20.7,7.4c-9.4,0-18.7-4-25.1-11.8
		c-5-6.1-7.4-13.4-7.4-20.7c0-9.4,4-18.7,11.8-25.1c6.1-5,13.4-7.4,20.7-7.4c9.4,0,18.7,4,25.1,11.8c2.6,3.2,4.5,6.7,5.7,10.4
		c0.2,0.5,0.8,0.8,1.3,0.6C80.2,40.2,80.5,39.6,80.4,39.1"/>
  </g>
</svg>

<?xml version="1.0" encoding="utf-8"?>
<!-- Generator: Adobe Illustrator 27.3.1, SVG Export Plug-In . SVG Version: 6.00 Build 0)  -->
<svg version="1.1" id="Layer_1" xmlns="http://www.w3.org/2000/svg" xmlns:xlink="http://www.w3.org/1999/xlink" x="0px" y="0px"
	 viewBox="0 0 100 100" style="enable-background:new 0 0 100 100;" xml:space="preserve">
<style type="text/css">
	.st0{fill:#FFFFFF;}
</style>
<g>
	<path class="st0" d="M84.1,56.9c0,1.1-0.7,1.6-2.1,1.6c-1,0-1.9-0.2-2.7-0.7v2c0.8,0.4,1.8,0.5,2.8,0.5c1.3,0,2.3-0.3,3.1-0.8
		c0.8-0.6,1.2-1.4,1.2-2.6c0-0.8-0.2-1.4-0.7-1.9c-0.5-0.5-1-0.7-1.7-0.8c0.6-0.2,1-0.5,1.4-0.9c0.4-0.4,0.5-0.9,0.5-1.5
		c0-1-0.3-1.7-0.9-2.2c-0.6-0.5-1.5-0.7-2.6-0.7c-1,0-1.9,0.1-2.8,0.4v1.9c0.8-0.3,1.7-0.5,2.5-0.5c0.5,0,0.8,0.1,1.1,0.3
		c0.2,0.2,0.4,0.5,0.4,0.9c0,0.4-0.2,0.8-0.5,1.1c-0.3,0.3-0.9,0.4-1.6,0.4h-0.9v1.9H82C83.4,55.4,84.1,55.9,84.1,56.9 M78.3,54.5
		h-4.8v1.8h4.8V54.5z M69.3,58.3c-0.3,0.3-0.7,0.4-1.1,0.4c-0.3,0-0.5-0.1-0.7-0.2c-0.2-0.2-0.3-0.4-0.3-0.6s0.1-0.5,0.2-0.7
		c0.1-0.2,0.4-0.3,0.8-0.4l0.9-0.3c0.2-0.1,0.4-0.1,0.5-0.3v1.1C69.7,57.7,69.5,58,69.3,58.3 M71.1,52.5c-0.6-0.5-1.3-0.7-2.4-0.7
		c-1.3,0-2.3,0.2-3.1,0.5v1.8c0.9-0.4,1.9-0.6,2.9-0.6c0.8,0,1.1,0.2,1.1,0.7c0,0.2-0.1,0.3-0.2,0.5c-0.1,0.1-0.3,0.2-0.7,0.3
		l-1.3,0.3c-0.9,0.2-1.6,0.6-2,1c-0.4,0.4-0.6,1-0.6,1.6c0,0.7,0.2,1.2,0.7,1.7c0.4,0.4,1,0.7,1.8,0.7c1.1,0,1.9-0.4,2.5-1.1
		c0,0.4,0.1,0.7,0.2,0.9h1.9v-5.3C71.9,53.8,71.6,53,71.1,52.5 M59.4,58.1c-1,0-1.5-0.7-1.5-2.2c0-1.5,0.5-2.2,1.5-2.2
		c1,0,1.5,0.7,1.5,2.2C60.9,57.4,60.4,58.1,59.4,58.1 M61.3,52.1c-0.1,0.3-0.2,0.6-0.2,1c-0.5-0.8-1.2-1.2-2.2-1.2
		c-1.1,0-2,0.4-2.5,1.1c-0.5,0.7-0.8,1.7-0.8,3c0,1.3,0.3,2.2,0.8,3c0.5,0.7,1.4,1.1,2.5,1.1c0.8,0,1.5-0.3,2-0.9v0.6
		c0,0.6-0.2,1.1-0.6,1.5c-0.4,0.4-0.9,0.6-1.6,0.6c-0.9,0-1.7-0.2-2.6-0.7v1.9c0.7,0.5,1.6,0.7,2.8,0.7c1.3,0,2.3-0.4,3-1.1
		c0.8-0.7,1.1-1.7,1.1-3v-7.3H61.3z M51.7,53.8c0.2,0.1,0.3,0.4,0.3,0.6c0,0.5-0.4,0.8-1.1,1l-1,0.3c-0.3,0.1-0.6,0.2-0.7,0.3v-0.2
		c0-0.7,0.2-1.2,0.5-1.6c0.3-0.4,0.7-0.6,1.3-0.6C51.3,53.6,51.5,53.7,51.7,53.8 M53.6,55.9c0.4-0.4,0.6-0.9,0.6-1.6
		c0-0.7-0.3-1.3-0.8-1.8c-0.5-0.5-1.3-0.7-2.4-0.7c-1.2,0-2.2,0.4-2.9,1.2c-0.7,0.8-1.1,1.8-1.1,3.1c0,1.3,0.3,2.4,1,3.1
		c0.6,0.8,1.6,1.1,2.8,1.1c1.4,0,2.5-0.2,3.4-0.7v-1.8c-1.2,0.5-2.3,0.8-3.4,0.8c-0.4,0-0.7-0.1-0.9-0.3c-0.2-0.2-0.3-0.4-0.3-0.6
		c0-0.3,0.2-0.5,0.6-0.6l1.4-0.3C52.5,56.6,53.2,56.3,53.6,55.9 M36.3,52.2c-0.4,0.2-0.7,0.6-0.9,0.9c0-0.5-0.1-0.8-0.2-1.1h-1.9
		v8.1h2.2v-4.1c0-0.8,0.1-1.4,0.4-1.8c0.3-0.4,0.6-0.5,1.1-0.5c0.4,0,0.7,0.2,0.9,0.7c0.1,0.3,0.1,0.8,0.1,1.6v4.2h2.2v-4.1
		c0-0.8,0.1-1.4,0.4-1.8c0.2-0.4,0.6-0.6,1.1-0.6c0.5,0,0.8,0.2,0.9,0.7C43,54.7,43,55.2,43,56v4.2h2.2v-4.7c0-1-0.1-1.7-0.3-2.2
		c-0.4-1-1.2-1.4-2.4-1.4c-0.6,0-1,0.1-1.5,0.4c-0.4,0.3-0.8,0.6-1,1c-0.4-0.9-1.2-1.4-2.4-1.4C37.2,51.9,36.8,52,36.3,52.2
		 M26.6,48.9c-1.6,0-2.8,0.5-3.7,1.6c-0.9,1-1.3,2.4-1.3,4.2c0,1.7,0.4,3.1,1.3,4.2c0.9,1.1,2.1,1.6,3.7,1.6c1.6,0,2.8-0.5,3.7-1.6
		c0.9-1.1,1.3-2.4,1.3-4.2c0-1.7-0.4-3.1-1.3-4.2C29.4,49.4,28.2,48.9,26.6,48.9 M28.6,57.4c-0.4,0.7-1.1,1.1-2,1.1
		c-0.9,0-1.6-0.4-1.9-1.1c-0.4-0.7-0.6-1.6-0.6-2.8c0-1.1,0.2-2.1,0.6-2.8c0.4-0.7,1-1.1,1.9-1.1c0.9,0,1.6,0.4,2,1.1
		c0.4,0.7,0.6,1.6,0.6,2.8C29.2,55.8,29,56.7,28.6,57.4"/>
	<path class="st0" d="M40.9,37.6c-2.8-2.8-2.8-7.3,0-10c2.8-2.8,7.3-2.8,10,0c2.8,2.8,2.8,7.3,0,10C48.2,40.3,43.7,40.3,40.9,37.6"
		/>
	<path class="st0" d="M55.2,44.5c-1.6-1.6-1.6-4.2,0-5.8c1.6-1.6,4.2-1.6,5.8,0c1.6,1.6,1.6,4.2,0,5.8
		C59.4,46.1,56.8,46.1,55.2,44.5"/>
	<path class="st0" d="M35,43.5c-0.9-0.9-0.9-2.3,0-3.2c0.9-0.9,2.3-0.9,3.2,0c0.9,0.9,0.9,2.3,0,3.2C37.3,44.3,35.9,44.3,35,43.5"/>
	<path class="st0" d="M80.4,39.1c-1.3-3.9-3.3-7.7-6.1-11c-6.8-8.3-16.7-12.5-26.7-12.5c-7.8,0-15.6,2.6-22,7.9
		C17.3,30.2,13,40.1,13,50.1c0,7.8,2.6,15.6,7.9,22c6.8,8.3,16.7,12.5,26.7,12.5c7.8,0,15.6-2.6,22-7.9c2.5-2.1,4.6-4.4,6.4-7
		c0.3-0.5,0.2-1.1-0.3-1.4c-0.5-0.3-1.1-0.2-1.4,0.3c-1.7,2.4-3.7,4.6-6,6.6c-6.1,5-13.4,7.4-20.7,7.4c-9.4,0-18.7-4-25.1-11.8
		c-5-6.1-7.4-13.4-7.4-20.7c0-9.4,4-18.7,11.8-25.1c6.1-5,13.4-7.4,20.7-7.4c9.4,0,18.7,4,25.1,11.8c2.6,3.2,4.5,6.7,5.7,10.4
		c0.2,0.5,0.8,0.8,1.3,0.6C80.2,40.2,80.5,39.6,80.4,39.1"/>
</g>
</svg>
