<svg xmlns="http://www.w3.org/2000/svg" viewBox="0 0 100 100">
  <g fill="none" stroke="#fff" stroke-width="2.051" stroke-linecap="round" stroke-miterlimit="10">
    <path d="M34,25.2c-10.5,5.6-17.7,16.8-17.7,29.5c0,1.4,0.1,2.7,0.3,4.1"/>
    <path d="M83.1,58.8c0.2-1.3,0.3-2.7,0.3-4.1c0-12.8-7.2-23.9-17.7-29.5"/>
    <path d="M32.6,83.5c5,3,10.9,4.7,17.1,4.7c6.3,0,12.2-1.8,17.2-4.8"/>
  </g>
  <g fill="#fff">
    <path d="M60.6,56.3c2.2-2.9,3.8-5.5,4.9-7.8h-4.7c-0.9,1.9-1.8,3.6-2.7,4.8c-1-1.5-1.9-3.1-2.7-4.8h-4.6
        c1,2.2,2.7,4.8,4.9,7.8c-2.2,2.6-3.9,5.3-5.2,8h4.7c0.9-2,1.9-3.7,3-5.2c1.2,1.6,2.1,3.4,3,5.2h4.7C64.5,61.7,62.8,59,60.6,56.3
        M43.9,58c0,2.1-1.3,3.1-4,3.1c-1.9,0-3.7-0.4-5.2-1.3v3.9c1.6,0.7,3.5,1.1,5.6,1.1c2.5,0,4.5-0.5,6.1-1.6c1.6-1.1,2.4-2.8,2.4-5.2
        c0-1.5-0.5-2.7-1.4-3.6c-0.9-0.9-2-1.4-3.3-1.6c1.1-0.3,2-0.9,2.7-1.8c0.7-0.9,1-1.9,1-3c0-1.9-0.6-3.3-1.8-4.3
        c-1.2-1-2.9-1.5-5.1-1.5c-1.9,0-3.7,0.3-5.4,0.8v3.8c1.6-0.6,3.3-1,4.9-1c0.9,0,1.6,0.2,2.1,0.7c0.5,0.4,0.7,1,0.7,1.8
        c0,0.8-0.3,1.6-1,2.1c-0.7,0.6-1.7,0.9-3.2,0.9h-1.7v3.6h2.6C42.6,54.9,43.9,55.9,43.9,58"/>
    <path d="M19.5,63.2c-6.1,0-11.1,5-11.1,11.1c0,6.1,5,11.1,11.1,11.1c6.1,0,11.1-5,11.1-11.1
        C30.5,68.2,25.6,63.2,19.5,63.2 M19.5,80.7c0,0-3.3-2.2-5.3-4.8h3.6c0.1,0,0.3-0.1,0.3-0.2l0.8-1.3l0.7,3.5c0,0.2,0.1,0.3,0.3,0.3
        l0.1,0c0.1,0,0.2-0.1,0.3-0.2l1.3-2.1h3.2C22.7,78.5,19.5,80.7,19.5,80.7 M25.6,74.5c-0.1,0.2-0.3,0.5-0.4,0.7h-3.9
        c-0.1,0-0.2,0.1-0.3,0.2l-0.9,1.5l-0.7-3.6c0-0.2-0.1-0.3-0.3-0.3c-0.2,0-0.3,0-0.4,0.2l-1.1,2h-3.9c-0.1-0.2-0.3-0.4-0.4-0.7
        c-1.5-3.1,3.1-7.7,6.2-3.1C22.6,66.7,27.2,71.4,25.6,74.5"/>
    <path d="M49.8,10.9c-6.1,0-11.1,5-11.1,11.1c0,6.1,5,11.1,11.1,11.1c6.1,0,11.1-5,11.1-11.1
        C60.9,15.9,55.9,10.9,49.8,10.9 M50.4,23c0,0.1,0,0.2-0.1,0.3l-0.2,0.1c-2.8,2.1-6.2,3.5-6.7,3.2c-0.3-0.2-0.4-1.1-0.2-2
        c0.2-1-0.4-3.2,0.2-4.9c0.6-1.7,3.4-2.8,6-2.3c0.1,0,0.2,0.1,0.4,0.1c0.1,0,0.2,0.1,0.3,0.2c0.2,0.4,0.3,0.9,0.4,1.4
        c0.1,0.4-0.1,1.3-0.2,1.8c-0.1,0.3-0.1,0.5-0.1,0.6C50.1,22.1,50.2,22.6,50.4,23 M55,20.5c-1,1-2.5,1.8-3.6,2.4
        c-0.1,0.1-0.2,0-0.3-0.1c-0.1-0.4-0.2-0.8-0.2-1.2c0-0.1,0-0.3,0.1-0.4c0.2-0.9,0.3-1.7,0.2-2.1c-0.1-0.4-0.2-0.8-0.3-1.2
        c0-0.1,0-0.2,0.1-0.2c2,0.1,5.3-0.2,5.4,1.3C56.6,19.4,55.8,19.6,55,20.5"/>
    <path d="M80.1,63.2c-6.1,0-11.1,5-11.1,11.1c0,6.1,5,11.1,11.1,11.1c6.1,0,11.1-5,11.1-11.1
        C91.2,68.2,86.2,63.2,80.1,63.2 M80.6,68.5l2.7,4.6c0.8,1.3,0.6,3-0.3,4.2c-1.5,1.8-4.2,1.8-5.7,0c-1-1.2-1.1-2.8-0.3-4.2l2.7-4.6
        C79.8,68.1,80.4,68.1,80.6,68.5 M74.1,71.9c0.4-0.9,1-1.8,1.8-2.4c0.7-0.6,1.6-1,2.4-1.3l-0.4,0.9c-0.5,0.2-1.1,0.5-1.5,0.9
        c-0.7,0.6-1.3,1.3-1.6,2.2c-0.1,0.2-0.3,0.3-0.5,0.2l-0.1-0.1C74,72.2,74,72,74.1,71.9 M86.2,77.1c-0.4,0.9-1,1.7-1.8,2.4l-0.1,0.1
        c-1.3,1.1-3,1.6-4.8,1.5c-1.8-0.2-3.3-1-4.5-2.3c-0.9-1.1-1.4-2.4-1.5-3.8L73,75.6c-0.1,0.2-0.3,0.2-0.5,0.1l-0.1-0.1
        c-0.1-0.1-0.1-0.3,0-0.4l1.1-1.4c0.1-0.1,0.2-0.1,0.3-0.1c0.1,0,0.2,0,0.3,0.1l1.2,1.4l0,0c0.1,0.1,0.1,0.4,0,0.5
        c-0.1,0.1-0.4,0.1-0.5,0l-0.5-0.6c0.1,1.2,0.6,2.4,1.4,3.4c1,1.2,2.4,1.9,4,2.1c1.6,0.1,3.1-0.3,4.3-1.4c0.7-0.6,1.3-1.3,1.6-2.2
        c0.1-0.2,0.3-0.3,0.5-0.2C86.2,76.8,86.3,77,86.2,77.1 M87.8,73.9l-1.1,1.4c-0.1,0.1-0.2,0.1-0.3,0.1c-0.1,0-0.2,0-0.3-0.1
        l-1.2-1.4l0,0c-0.1-0.1-0.1-0.4,0-0.5c0.1-0.1,0.4-0.1,0.5,0l0.5,0.6c-0.1-1.2-0.6-2.4-1.4-3.4C84,70,83.2,69.4,82.3,69l-0.3-0.8
        l0-0.1c1.3,0.4,2.4,1.1,3.3,2.1c0.9,1.1,1.4,2.4,1.5,3.8l0.5-0.7c0.1-0.2,0.3-0.2,0.5-0.1C87.9,73.5,87.9,73.7,87.8,73.9"/>
  </g>
</svg>



            <svg width="100" height="100" xmlns="http://www.w3.org/2000/svg" x="0px" y="0px" viewBox="0 0 100 100" xml:space="preserve">
                <style type="text/css">
                    .st0{fill:none;stroke:#FFFFFF;stroke-width:2.051;stroke-linecap:round;stroke-miterlimit:10;}
                    .st1{fill:#FFFFFF;}
                </style>
                <g>
                    <path class="st0" d="M34,25.2c-10.5,5.6-17.7,16.8-17.7,29.5c0,1.4,0.1,2.7,0.3,4.1"/>
                    <path class="st0" d="M83.1,58.8c0.2-1.3,0.3-2.7,0.3-4.1c0-12.8-7.2-23.9-17.7-29.5"/>
                    <path class="st0" d="M32.6,83.5c5,3,10.9,4.7,17.1,4.7c6.3,0,12.2-1.8,17.2-4.8"/>
                    <path class="st1" d="M60.6,56.3c2.2-2.9,3.8-5.5,4.9-7.8h-4.7c-0.9,1.9-1.8,3.6-2.7,4.8c-1-1.5-1.9-3.1-2.7-4.8h-4.6
                        c1,2.2,2.7,4.8,4.9,7.8c-2.2,2.6-3.9,5.3-5.2,8h4.7c0.9-2,1.9-3.7,3-5.2c1.2,1.6,2.1,3.4,3,5.2h4.7C64.5,61.7,62.8,59,60.6,56.3
                        M43.9,58c0,2.1-1.3,3.1-4,3.1c-1.9,0-3.7-0.4-5.2-1.3v3.9c1.6,0.7,3.5,1.1,5.6,1.1c2.5,0,4.5-0.5,6.1-1.6c1.6-1.1,2.4-2.8,2.4-5.2
                        c0-1.5-0.5-2.7-1.4-3.6c-0.9-0.9-2-1.4-3.3-1.6c1.1-0.3,2-0.9,2.7-1.8c0.7-0.9,1-1.9,1-3c0-1.9-0.6-3.3-1.8-4.3
                        c-1.2-1-2.9-1.5-5.1-1.5c-1.9,0-3.7,0.3-5.4,0.8v3.8c1.6-0.6,3.3-1,4.9-1c0.9,0,1.6,0.2,2.1,0.7c0.5,0.4,0.7,1,0.7,1.8
                        c0,0.8-0.3,1.6-1,2.1c-0.7,0.6-1.7,0.9-3.2,0.9h-1.7v3.6h2.6C42.6,54.9,43.9,55.9,43.9,58"/>
                    <path class="st1" d="M19.5,63.2c-6.1,0-11.1,5-11.1,11.1c0,6.1,5,11.1,11.1,11.1c6.1,0,11.1-5,11.1-11.1
                        C30.5,68.2,25.6,63.2,19.5,63.2 M19.5,80.7c0,0-3.3-2.2-5.3-4.8h3.6c0.1,0,0.3-0.1,0.3-0.2l0.8-1.3l0.7,3.5c0,0.2,0.1,0.3,0.3,0.3
                        l0.1,0c0.1,0,0.2-0.1,0.3-0.2l1.3-2.1h3.2C22.7,78.5,19.5,80.7,19.5,80.7 M25.6,74.5c-0.1,0.2-0.3,0.5-0.4,0.7h-3.9
                        c-0.1,0-0.2,0.1-0.3,0.2l-0.9,1.5l-0.7-3.6c0-0.2-0.1-0.3-0.3-0.3c-0.2,0-0.3,0-0.4,0.2l-1.1,2h-3.9c-0.1-0.2-0.3-0.4-0.4-0.7
                        c-1.5-3.1,3.1-7.7,6.2-3.1C22.6,66.7,27.2,71.4,25.6,74.5"/>
                    <path class="st1" d="M49.8,10.9c-6.1,0-11.1,5-11.1,11.1c0,6.1,5,11.1,11.1,11.1c6.1,0,11.1-5,11.1-11.1
                        C60.9,15.9,55.9,10.9,49.8,10.9 M50.4,23c0,0.1,0,0.2-0.1,0.3l-0.2,0.1c-2.8,2.1-6.2,3.5-6.7,3.2c-0.3-0.2-0.4-1.1-0.2-2
                        c0.2-1-0.4-3.2,0.2-4.9c0.6-1.7,3.4-2.8,6-2.3c0.1,0,0.2,0.1,0.4,0.1c0.1,0,0.2,0.1,0.3,0.2c0.2,0.4,0.3,0.9,0.4,1.4
                        c0.1,0.4-0.1,1.3-0.2,1.8c-0.1,0.3-0.1,0.5-0.1,0.6C50.1,22.1,50.2,22.6,50.4,23 M55,20.5c-1,1-2.5,1.8-3.6,2.4
                        c-0.1,0.1-0.2,0-0.3-0.1c-0.1-0.4-0.2-0.8-0.2-1.2c0-0.1,0-0.3,0.1-0.4c0.2-0.9,0.3-1.7,0.2-2.1c-0.1-0.4-0.2-0.8-0.3-1.2
                        c0-0.1,0-0.2,0.1-0.2c2,0.1,5.3-0.2,5.4,1.3C56.6,19.4,55.8,19.6,55,20.5"/>
                    <path class="st1" d="M80.1,63.2c-6.1,0-11.1,5-11.1,11.1c0,6.1,5,11.1,11.1,11.1c6.1,0,11.1-5,11.1-11.1
                        C91.2,68.2,86.2,63.2,80.1,63.2 M80.6,68.5l2.7,4.6c0.8,1.3,0.6,3-0.3,4.2c-1.5,1.8-4.2,1.8-5.7,0c-1-1.2-1.1-2.8-0.3-4.2l2.7-4.6
                        C79.8,68.1,80.4,68.1,80.6,68.5 M74.1,71.9c0.4-0.9,1-1.8,1.8-2.4c0.7-0.6,1.6-1,2.4-1.3l-0.4,0.9c-0.5,0.2-1.1,0.5-1.5,0.9
                        c-0.7,0.6-1.3,1.3-1.6,2.2c-0.1,0.2-0.3,0.3-0.5,0.2l-0.1-0.1C74,72.2,74,72,74.1,71.9 M86.2,77.1c-0.4,0.9-1,1.7-1.8,2.4l-0.1,0.1
                        c-1.3,1.1-3,1.6-4.8,1.5c-1.8-0.2-3.3-1-4.5-2.3c-0.9-1.1-1.4-2.4-1.5-3.8L73,75.6c-0.1,0.2-0.3,0.2-0.5,0.1l-0.1-0.1
                        c-0.1-0.1-0.1-0.3,0-0.4l1.1-1.4c0.1-0.1,0.2-0.1,0.3-0.1c0.1,0,0.2,0,0.3,0.1l1.2,1.4l0,0c0.1,0.1,0.1,0.4,0,0.5
                        c-0.1,0.1-0.4,0.1-0.5,0l-0.5-0.6c0.1,1.2,0.6,2.4,1.4,3.4c1,1.2,2.4,1.9,4,2.1c1.6,0.1,3.1-0.3,4.3-1.4c0.7-0.6,1.3-1.3,1.6-2.2
                        c0.1-0.2,0.3-0.3,0.5-0.2C86.2,76.8,86.3,77,86.2,77.1 M87.8,73.9l-1.1,1.4c-0.1,0.1-0.2,0.1-0.3,0.1c-0.1,0-0.2,0-0.3-0.1
                        l-1.2-1.4l0,0c-0.1-0.1-0.1-0.4,0-0.5c0.1-0.1,0.4-0.1,0.5,0l0.5,0.6c-0.1-1.2-0.6-2.4-1.4-3.4C84,70,83.2,69.4,82.3,69l-0.3-0.8
                        l0-0.1c1.3,0.4,2.4,1.1,3.3,2.1c0.9,1.1,1.4,2.4,1.5,3.8l0.5-0.7c0.1-0.2,0.3-0.2,0.5-0.1C87.9,73.5,87.9,73.7,87.8,73.9"/>
                </g>
            </svg>