<svg xmlns="http://www.w3.org/2000/svg" viewBox="0 0 100 100">
    <defs>
        <linearGradient id="arrowGradient" x1="49.779" y1="44.891" x2="49.779" y2="89.475" gradientUnits="userSpaceOnUse">
            <stop offset="0" stop-color="#fff"/>
            <stop offset="0.947" stop-color="#fff" stop-opacity=".053"/>
            <stop offset="1" stop-color="#fff" stop-opacity="0"/>
        </linearGradient>
    </defs>

    <path fill="url(#arrowGradient)"
          d="M57.9 89.5H41.7V67.3h-7.2c-.4 0-.8-.2-1-.6-.2-.4-.1-.8.1-1.1l15.3-20.3c.2-.3.5-.4.9-.4.3 0 .7.2.9.4l15.3 20.3c.2.3.3.8.1 1.1-.2.4-.6.6-1 .6h-7.2V89.5z"/>

    <path fill="#fff"
          d="M66.6 34.6c1.3-1.8 2.3-3.4 3-4.8h-2.9c-.6 1.2-1.1 2.2-1.7 3-.6-.9-1.2-1.9-1.7-3h-2.9c.6 1.4 1.6 3 3 4.8-1.3 1.6-2.4 3.3-3.2 5h2.9c.6-1.2 1.2-2.3 1.8-3.2.7 1 1.3 2.1 1.8 3.2h2.9c-.8-1.7-1.8-3.3-3.2-5z"/>

    <path fill="#fff"
          d="M65.1 76.2c3.7-1.8 7.1-4.3 10.1-7.5 6.1-6.6 9.2-15.1 9.2-23.4 0-9.3-3.7-18.6-11.1-25.4-6.6-6.1-15.1-9.2-23.4-9.2-9.3 0-18.6 3.7-25.4 11.1-6.1 6.6-9.2 15.1-9.2 23.4 0 9.3 3.7 18.6 11.1 25.4 2.4 2.2 5 4 7.8 5.4.5.3 1.1.1 1.4-.4.3-.5.1-1.1-.4-1.4-2.6-1.3-5.1-3-7.3-5.1C20.8 62.7 17.3 54 17.3 45.2c0-7.9 2.8-15.8 8.6-22.1 6.4-6.9 15.1-10.4 23.9-10.4 7.9 0 15.8 2.8 22.1 8.6 6.9 6.4 10.4 15.1 10.4 23.9 0 7.9-2.8 15.8-8.6 22.1-2.8 3-6 5.4-9.5 7.1-.5.2-.7.9-.5 1.4.3.5.9.7 1.4.4z"/>
</svg>

<?xml version="1.0" encoding="utf-8"?>
<!-- Generator: Adobe Illustrator 27.3.1, SVG Export Plug-In . SVG Version: 6.00 Build 0)  -->
<svg version="1.1" id="Layer_1" xmlns="http://www.w3.org/2000/svg" xmlns:xlink="http://www.w3.org/1999/xlink" x="0px" y="0px"
	 viewBox="0 0 100 100" style="enable-background:new 0 0 100 100;" xml:space="preserve">
<style type="text/css">
	.st0{fill:#FFFFFF;}
</style>
<g>
	<g>
		<defs>
			<path id="SVGID_1_" d="M57.9,89.5H41.7V67.3h-7.2c-0.4,0-0.8-0.2-1-0.6c-0.2-0.4-0.1-0.8,0.1-1.1l15.3-20.3
				c0.2-0.3,0.5-0.4,0.9-0.4c0.3,0,0.7,0.2,0.9,0.4h0l15.3,20.3c0.2,0.3,0.3,0.8,0.1,1.1c-0.2,0.4-0.6,0.6-1,0.6h-7.2L57.9,89.5"/>
		</defs>
		
		<linearGradient id="SVGID_00000072278754218066016240000014238288568641457598_" gradientUnits="userSpaceOnUse" x1="49.7793" y1="44.8907" x2="49.7793" y2="89.4747">
			<stop  offset="0" style="stop-color:#FFFFFF"/>
			<stop  offset="0.9469" style="stop-color:#FFFFFF;stop-opacity:5.307293e-02"/>
			<stop  offset="1" style="stop-color:#FFFFFF;stop-opacity:0"/>
		</linearGradient>
		<use xlink:href="#SVGID_1_"  style="overflow:visible;fill:url(#SVGID_00000072278754218066016240000014238288568641457598_);"/>
		<clipPath id="SVGID_00000142855568032250385290000014979103127564626828_">
			<use xlink:href="#SVGID_1_"  style="overflow:visible;"/>
		</clipPath>
	</g>
	<path class="st0" d="M66.6,34.6c1.3-1.8,2.3-3.4,3-4.8h-2.9c-0.6,1.2-1.1,2.2-1.7,3c-0.6-0.9-1.2-1.9-1.7-3h-2.9
		c0.6,1.4,1.6,3,3,4.8c-1.3,1.6-2.4,3.3-3.2,5h2.9c0.6-1.2,1.2-2.3,1.8-3.2c0.7,1,1.3,2.1,1.8,3.2h2.9C69,37.9,68,36.3,66.6,34.6
		 M54.6,32.8c1.2,0,1.8,0.8,1.8,2.3c0,0.7-0.1,1.3-0.4,1.7c-0.3,0.4-0.7,0.6-1.3,0.6c-1.2,0-1.8-0.8-1.8-2.4
		C52.9,33.6,53.5,32.8,54.6,32.8 M50.2,36.4c0.2,0.9,0.5,1.5,1,2c0.4,0.5,0.9,0.8,1.5,1c0.6,0.2,1.2,0.3,2,0.3
		c1.4,0,2.6-0.4,3.4-1.2s1.3-1.9,1.3-3.4c0-1.4-0.4-2.6-1.1-3.3c-0.7-0.8-1.7-1.2-2.9-1.2c-1.2,0-2.1,0.4-2.6,1.2
		c0-1.1,0.4-2,0.9-2.7c0.6-0.7,1.3-1,2.2-1c0.9,0,1.8,0.1,2.7,0.4v-2.3c-0.9-0.3-2-0.4-3.1-0.4c-0.6,0-1.2,0.1-1.7,0.2
		c-0.5,0.1-1,0.4-1.5,0.7c-0.5,0.4-0.9,0.8-1.2,1.4c-0.3,0.6-0.6,1.3-0.8,2.1c-0.2,0.9-0.3,1.9-0.3,3C49.9,34.6,50,35.6,50.2,36.4
		 M46.5,39.8c0.5,0,0.9-0.2,1.3-0.5c0.4-0.4,0.5-0.8,0.5-1.3c0-0.5-0.2-0.9-0.5-1.3c-0.4-0.4-0.8-0.5-1.3-0.5
		c-0.5,0-0.9,0.2-1.3,0.5c-0.4,0.4-0.5,0.8-0.5,1.3c0,0.5,0.2,0.9,0.5,1.3C45.6,39.6,46,39.8,46.5,39.8 M37.9,33.4
		c0.6,0,1.1,0.2,1.5,0.6c0.4,0.4,0.5,0.9,0.5,1.6c0,0.7-0.2,1.2-0.5,1.6c-0.4,0.4-0.9,0.6-1.5,0.6c-0.6,0-1.1-0.2-1.5-0.6
		c-0.4-0.4-0.5-0.9-0.5-1.6c0-0.7,0.2-1.2,0.5-1.6C36.7,33.6,37.2,33.4,37.9,33.4 M37.9,28c1,0,1.6,0.6,1.6,1.7
		c0,0.5-0.1,0.9-0.4,1.2c-0.3,0.3-0.6,0.5-1.2,0.5c-0.5,0-0.9-0.1-1.2-0.5c-0.3-0.3-0.4-0.7-0.4-1.2C36.3,28.6,36.8,28,37.9,28
		 M42.1,33.4c-0.4-0.6-1-1-1.6-1.2c0.5-0.2,0.9-0.6,1.2-1c0.3-0.5,0.5-1,0.5-1.6c0-1.1-0.4-2-1.1-2.6c-0.7-0.7-1.8-1-3.3-1
		c-1.4,0-2.5,0.3-3.3,1c-0.7,0.7-1.1,1.5-1.1,2.6c0,0.6,0.2,1.2,0.5,1.6c0.3,0.5,0.7,0.8,1.2,1.1c-0.6,0.2-1.1,0.6-1.6,1.2
		c-0.4,0.6-0.7,1.3-0.7,2.1c0,1.3,0.4,2.3,1.3,3.1c0.9,0.8,2.1,1.2,3.7,1.2s2.8-0.4,3.7-1.2c0.9-0.8,1.3-1.8,1.3-3.1
		C42.8,34.7,42.6,34,42.1,33.4"/>
	<path class="st0" d="M65.1,76.2c3.7-1.8,7.1-4.3,10.1-7.5c6.1-6.6,9.2-15.1,9.2-23.4c0-9.3-3.7-18.6-11.1-25.4
		c-6.6-6.1-15.1-9.2-23.4-9.2c-9.3,0-18.6,3.7-25.4,11.1h0c-6.1,6.6-9.2,15.1-9.2,23.4c0,9.3,3.7,18.6,11.1,25.4
		c2.4,2.2,5,4,7.8,5.4c0.5,0.3,1.1,0.1,1.4-0.4c0.3-0.5,0.1-1.1-0.4-1.4c-2.6-1.3-5.1-3-7.3-5.1C20.8,62.7,17.3,54,17.3,45.2
		c0-7.9,2.8-15.8,8.6-22.1c6.4-6.9,15.1-10.4,23.9-10.4c7.9,0,15.8,2.8,22.1,8.6c6.9,6.4,10.4,15.1,10.4,23.9
		c0,7.9-2.8,15.8-8.6,22.1c-2.8,3-6,5.4-9.5,7.1c-0.5,0.2-0.7,0.9-0.5,1.4C64,76.3,64.6,76.5,65.1,76.2"/>
</g>
</svg>
