<svg xmlns="http://www.w3.org/2000/svg" xmlns:xlink="http://www.w3.org/1999/xlink" width="329.88" height="50.037" viewBox="0 0 329.88 50.037">
  <defs>
    <clipPath id="clip-path">
      <rect id="Rectangle_1651" data-name="Rectangle 1651" width="329.88" height="50.037" fill="none"/>
    </clipPath>
  </defs>
  <g id="Group_2175" data-name="Group 2175" transform="translate(0 0)">
    <path id="Path_1325" data-name="Path 1325" d="M0,1.547V37.857H20.6V31.51H7.646V1.547Z" transform="translate(0 1.257)" fill="#971e0f"/>
    <g id="Group_1587" data-name="Group 1587" transform="translate(0 0)">
      <g id="Group_1586" data-name="Group 1586" clip-path="url(#clip-path)">
        <path id="Path_1326" data-name="Path 1326" d="M27.741,24.2c0,2.914-1.925,4.734-5.047,4.734a2.855,2.855,0,0,1-3.068-2.912c0-1.56.623-2.706,3.432-3.538l3.017-.884a3.319,3.319,0,0,0,1.665-.832Zm7.334-7.854c0-7.387-4.161-9.779-10.508-9.779A25.631,25.631,0,0,0,14.475,8.34v5.93A27.6,27.6,0,0,1,24,12.4c2.55,0,3.746.935,3.746,2.236,0,1.249-.676,1.977-2.809,2.5l-4.11,1.04c-6.294,1.56-8.48,4.473-8.48,8.53,0,4.266,3.017,7.648,8.012,7.648a9.944,9.944,0,0,0,8.063-3.538,8.1,8.1,0,0,0,.52,2.965h6.138Z" transform="translate(10.025 5.337)" fill="#971e0f"/>
        <path id="Path_1327" data-name="Path 1327" d="M44.844,19.784c0,4.42-1.354,7.334-4.995,7.334s-4.942-2.914-4.942-7.334,1.3-7.336,4.942-7.336,4.995,2.914,4.995,7.336M52.179,7.247H46.041a9.63,9.63,0,0,0-.52,3.226,8.308,8.308,0,0,0-7.231-3.9c-7.751,0-10.819,5.41-10.819,13.213s3.068,13.161,10.819,13.161a7.811,7.811,0,0,0,6.555-3.07v2.03c0,3.693-2.341,6.762-7.075,6.762a15.218,15.218,0,0,1-8.427-2.445v6.243C31.058,43.609,33.817,44.7,38.5,44.7c7.96,0,13.681-4.578,13.681-13.422Z" transform="translate(22.314 5.337)" fill="#971e0f"/>
        <path id="Path_1328" data-name="Path 1328" d="M68.506,20.512c0-8.427-4.369-13.942-12.382-13.942s-12.38,5.515-12.38,13.942,4.369,13.942,12.38,13.942,12.382-5.515,12.382-13.942m-7.439,0c0,4.89-1.3,8.063-4.942,8.063s-4.942-3.173-4.942-8.063,1.3-8.063,4.942-8.063,4.942,3.173,4.942,8.063" transform="translate(35.534 5.336)" fill="#971e0f"/>
        <path id="Path_1329" data-name="Path 1329" d="M69.487,6.57c-7.126,0-10.249,3.693-10.249,8.063,0,4.525,2.653,6.711,6.763,8.115l2.445.832c2.341.781,3.226,1.457,3.226,2.756,0,1.562-1.249,2.394-3.746,2.394a19.535,19.535,0,0,1-8.739-2.394v6.14a19.877,19.877,0,0,0,8.686,1.975c7.334,0,11.289-3.173,11.289-8.739,0-3.849-2.081-6.294-6.606-7.751l-2.447-.779c-2.548-.834-3.38-1.457-3.38-2.758,0-1.352,1.249-2.133,3.224-2.133a20.931,20.931,0,0,1,7.907,1.821V8.235A20.952,20.952,0,0,0,69.487,6.57" transform="translate(48.078 5.336)" fill="#971e0f"/>
        <path id="Path_1330" data-name="Path 1330" d="M87.5,24.2c0,2.914-1.925,4.734-5.047,4.734a2.855,2.855,0,0,1-3.068-2.912c0-1.56.623-2.706,3.432-3.538l3.017-.884a3.319,3.319,0,0,0,1.665-.832Zm7.334-7.854c0-7.387-4.161-9.779-10.508-9.779A25.631,25.631,0,0,0,74.237,8.34v5.93a27.6,27.6,0,0,1,9.52-1.872c2.55,0,3.746.935,3.746,2.236,0,1.249-.676,1.977-2.809,2.5l-4.11,1.04c-6.294,1.56-8.48,4.473-8.48,8.53,0,4.266,3.017,7.648,8.012,7.648a9.944,9.944,0,0,0,8.063-3.538,8.1,8.1,0,0,0,.52,2.965h6.138Z" transform="translate(58.569 5.337)" fill="#971e0f"/>
        <path id="Path_1331" data-name="Path 1331" d="M99.363,37.857h7.646V7.945h9.625v-6.4H89.74v6.4h9.623Z" transform="translate(72.895 1.256)" fill="#ec6500"/>
        <path id="Path_1332" data-name="Path 1332" d="M105.3,33.731h7.334V18.489c0-3.382,1.4-5.306,4.89-5.306a10.918,10.918,0,0,1,3.123.364V6.889a7.456,7.456,0,0,0-1.977-.261,7.607,7.607,0,0,0-6.711,3.954,10.29,10.29,0,0,0-.52-3.382H105.3Z" transform="translate(85.532 5.383)" fill="#ec6500"/>
        <path id="Path_1333" data-name="Path 1333" d="M115.142,4.655a4.63,4.63,0,1,0,4.63-4.629,4.64,4.64,0,0,0-4.63,4.629m.99,34.437h7.334V12.562h-7.334Z" transform="translate(93.529 0.02)" fill="#ec6500"/>
        <path id="Path_1334" data-name="Path 1334" d="M135.652,12.449c3.641,0,4.942,3.016,4.942,8.063s-1.3,8.01-4.942,8.01-4.995-2.965-4.995-8.01,1.354-8.063,4.995-8.063m1.56-5.879a8.389,8.389,0,0,0-7.231,3.849,9.354,9.354,0,0,0-.52-3.173h-6.138V44.077h7.334v-12.9a7.86,7.86,0,0,0,6.816,3.277c7.49,0,10.558-5.513,10.558-13.94S144.964,6.57,137.212,6.57" transform="translate(100.174 5.336)" fill="#ec6500"/>
        <path id="Path_1335" data-name="Path 1335" d="M139.541,29.932c0,6.4,2.186,8.791,7.126,8.791a14.961,14.961,0,0,0,3.8-.417V32.638h-1.3c-1.613,0-2.289-.573-2.289-3.173V.8h-7.334Z" transform="translate(113.348 0.65)" fill="#ec6500"/>
        <path id="Path_1336" data-name="Path 1336" d="M159.836,12.346c2.081,0,3.277,1.04,3.277,2.756,0,1.56-1.091,2.548-3.538,3.173l-3.224.832a4.729,4.729,0,0,0-2.186.99v-.522c0-4.369,2.081-7.229,5.671-7.229m1.925,10.3c5.879-1.352,8.688-3.226,8.688-8.01,0-4.475-3.329-8.065-10.56-8.065-7.751,0-13.058,5.515-13.058,13.942s4.161,13.942,12.382,13.942a23.2,23.2,0,0,0,11.079-2.394V26.183a32.144,32.144,0,0,1-11.079,2.5c-2.914,0-4.058-1.821-4.058-2.914s.571-1.716,1.925-2.028Z" transform="translate(119.269 5.336)" fill="#ec6500"/>
        <path id="Path_1337" data-name="Path 1337" d="M186.5,33.474A69.865,69.865,0,0,0,177.86,20a81.7,81.7,0,0,0,8.168-13.058h-7.8a58.989,58.989,0,0,1-4.525,8.115,56.823,56.823,0,0,1-4.525-8.115h-7.751A85.035,85.035,0,0,0,169.589,20a66.94,66.94,0,0,0-8.636,13.473h7.8a65,65,0,0,1,4.942-8.739,54.611,54.611,0,0,1,4.942,8.739Z" transform="translate(130.741 5.64)" fill="#ec6500"/>
        <path id="Path_1338" data-name="Path 1338" d="M181.379,11.08c-2.853,0-4.551-2.062-4.551-4.853,0-2.769,1.7-4.852,4.551-4.852s4.569,2.082,4.569,4.852c0,2.791-1.718,4.853-4.569,4.853m0-11.08a5.985,5.985,0,0,0-6.126,6.227,6.137,6.137,0,1,0,12.273,0A5.992,5.992,0,0,0,181.379,0m-.79,4.045a3.911,3.911,0,0,1,.71-.062c1.009,0,1.274.344,1.274.93,0,.689-.547.85-1.3.951l-.689.1Zm-1.453,5.5h1.453V8.351c0-.87.063-1.153.386-1.192l.181-.022a15.059,15.059,0,0,1,1.656,2.407h1.6a15.4,15.4,0,0,0-1.82-2.689,2.094,2.094,0,0,0,1.475-1.941c0-1.334-.93-2.2-2.892-2.2a13.143,13.143,0,0,0-2.041.183Z" transform="translate(142.356 -0.001)" fill="#ec6500"/>
      </g>
    </g>
  </g>
</svg>
