<svg xmlns="http://www.w3.org/2000/svg" width="97.49" height="97.49" viewBox="0 0 97.49 97.49"><path d="m48.75,96.85c26.57,0,48.11-21.54,48.11-48.11S75.32.63,48.75.63.63,22.17.63,48.74s21.54,48.11,48.11,48.11Z" fill="none" stroke="#fff" stroke-width="1.27"/><line x1="16.32" y1="81.48" x2="80.85" y2="16.94" fill="none" stroke="#fff" stroke-linecap="round" stroke-width="1.27"/><path d="m31.58,71.15c.03,2.03.53,4.03,1.46,5.84.93,1.81,2.26,3.39,3.89,4.6,1.65,1.24,3.55,2.11,5.58,2.53,2.02.42,4.11.4,6.12-.08-.04-2.03-.53-4.03-1.46-5.84-.93-1.81-2.26-3.39-3.89-4.6-1.65-1.24-3.55-2.11-5.58-2.53-2.02-.42-4.11-.4-6.12.08m0-13.55c.04,2.03.54,4.03,1.47,5.84.93,1.81,2.25,3.39,3.88,4.61,1.65,1.24,3.55,2.1,5.58,2.52,2.02.42,4.11.39,6.12-.08-.04-2.03-.54-4.03-1.46-5.84-.93-1.81-2.26-3.38-3.88-4.6-1.65-1.24-3.55-2.11-5.58-2.53-2.02-.42-4.11-.39-6.12.09m0-13.5c.04,2.03.54,4.03,1.46,5.84.93,1.81,2.26,3.38,3.88,4.6,1.65,1.24,3.55,2.11,5.58,2.53,2.02.42,4.11.39,6.12-.09-.04-2.03-.54-4.03-1.47-5.84-.93-1.81-2.25-3.38-3.88-4.6-1.65-1.24-3.55-2.1-5.58-2.52-2.02-.42-4.11-.39-6.12.08Zm0-13.49c.03,2.03.53,4.03,1.46,5.84.93,1.81,2.26,3.38,3.89,4.6,1.65,1.24,3.55,2.11,5.58,2.53,2.02.42,4.11.4,6.12-.08-.04-2.03-.53-4.03-1.46-5.84-.93-1.81-2.26-3.38-3.89-4.6-1.65-1.24-3.55-2.11-5.58-2.53-2.02-.42-4.11-.4-6.12.08m22.63,42.95c-1.62,1.22-2.93,2.8-3.85,4.61-.92,1.81-1.41,3.8-1.43,5.83,2.01.47,4.11.49,6.13.06,2.02-.43,3.92-1.3,5.57-2.54,1.61-1.22,2.92-2.79,3.83-4.58.92-1.8,1.41-3.78,1.45-5.8-2.01-.48-4.1-.52-6.12-.11-2.02.41-3.93,1.26-5.58,2.5v.03Zm0-13.5c-1.62,1.22-2.93,2.8-3.85,4.61-.92,1.81-1.41,3.8-1.44,5.83,2.01.47,4.1.5,6.13.07,2.02-.43,3.92-1.29,5.57-2.54,1.61-1.22,2.93-2.8,3.84-4.61.92-1.81,1.41-3.8,1.44-5.83-2.01-.48-4.1-.51-6.12-.09-2.02.42-3.93,1.28-5.58,2.53v.03Zm0-13.5c-1.61,1.23-2.93,2.8-3.84,4.61-.92,1.81-1.41,3.8-1.44,5.83,2.01.48,4.1.5,6.13.07,2.02-.42,3.93-1.29,5.57-2.54,1.62-1.23,2.93-2.8,3.85-4.61.92-1.81,1.41-3.81,1.44-5.83-2.01-.48-4.1-.51-6.12-.08-2.02.42-3.93,1.28-5.58,2.53v.03Zm-10.65-22.96c.01,2.05.5,4.07,1.41,5.9.92,1.83,2.24,3.43,3.87,4.67,2.19-1.65,3.8-3.95,4.63-6.57.82-2.62.81-5.43-.04-8.03-.84-2.61-2.48-4.89-4.68-6.53-1.61,1.25-2.92,2.85-3.82,4.68-.9,1.83-1.37,3.84-1.37,5.88Zm22.35,7c-.03,2.03-.52,4.02-1.43,5.83-.92,1.81-2.23,3.39-3.85,4.61-1.65,1.24-3.55,2.11-5.58,2.53-2.02.42-4.11.4-6.12-.08.03-2.03.52-4.02,1.43-5.83.92-1.81,2.23-3.39,3.85-4.61,1.65-1.24,3.55-2.11,5.58-2.53,2.02-.42,4.11-.4,6.12.08" fill="#fff"/></svg>